<mxfile host="app.diagrams.net" modified="2023-11-29T03:21:23.151Z" agent="Mozilla/5.0 (X11; Linux x86_64; rv:120.0) Gecko/20100101 Firefox/120.0" etag="xTmc5mjQdrZfjCPU7nRZ" version="22.1.4" type="google">
  <diagram name="Page-1" id="8ujNkZL-UvPTrEu08CEH">
    <mxGraphModel grid="0" page="1" gridSize="10" guides="1" tooltips="1" connect="1" arrows="1" fold="1" pageScale="1" pageWidth="850" pageHeight="1100" math="0" shadow="0">
      <root>
        <mxCell id="0" />
        <mxCell id="1" parent="0" />
        <mxCell id="hCgfWxHEHQQVAN8_4vTF-3" value="PC" style="ellipse;whiteSpace=wrap;html=1;" vertex="1" parent="1">
          <mxGeometry x="407" y="29" width="78" height="62" as="geometry" />
        </mxCell>
        <mxCell id="hCgfWxHEHQQVAN8_4vTF-4" value="&lt;div&gt;Virtualization&lt;/div&gt;&lt;div&gt;QEMU,VBox&lt;br&gt;&lt;/div&gt;" style="ellipse;whiteSpace=wrap;html=1;" vertex="1" parent="1">
          <mxGeometry x="403" y="123" width="89" height="60" as="geometry" />
        </mxCell>
        <mxCell id="hCgfWxHEHQQVAN8_4vTF-6" value="RTOS" style="ellipse;whiteSpace=wrap;html=1;" vertex="1" parent="1">
          <mxGeometry x="457" y="201" width="74" height="60" as="geometry" />
        </mxCell>
        <mxCell id="hCgfWxHEHQQVAN8_4vTF-8" value="&lt;div&gt;Application develop&lt;/div&gt;&lt;div&gt;release deploy&lt;br&gt;&lt;/div&gt;" style="ellipse;whiteSpace=wrap;html=1;" vertex="1" parent="1">
          <mxGeometry x="319" y="180" width="92" height="87" as="geometry" />
        </mxCell>
        <mxCell id="hCgfWxHEHQQVAN8_4vTF-9" value="" style="endArrow=classic;startArrow=classic;html=1;rounded=0;entryX=0.5;entryY=1;entryDx=0;entryDy=0;exitX=0.5;exitY=0;exitDx=0;exitDy=0;" edge="1" parent="1" source="hCgfWxHEHQQVAN8_4vTF-4" target="hCgfWxHEHQQVAN8_4vTF-3">
          <mxGeometry width="50" height="50" relative="1" as="geometry">
            <mxPoint x="421" y="286" as="sourcePoint" />
            <mxPoint x="471" y="236" as="targetPoint" />
          </mxGeometry>
        </mxCell>
        <mxCell id="hCgfWxHEHQQVAN8_4vTF-10" value="" style="endArrow=classic;html=1;rounded=0;exitX=1;exitY=1;exitDx=0;exitDy=0;" edge="1" parent="1" source="hCgfWxHEHQQVAN8_4vTF-4" target="hCgfWxHEHQQVAN8_4vTF-6">
          <mxGeometry width="50" height="50" relative="1" as="geometry">
            <mxPoint x="421" y="286" as="sourcePoint" />
            <mxPoint x="471" y="236" as="targetPoint" />
          </mxGeometry>
        </mxCell>
        <mxCell id="hCgfWxHEHQQVAN8_4vTF-14" value="" style="endArrow=classic;startArrow=classic;html=1;rounded=0;entryX=1;entryY=0.5;entryDx=0;entryDy=0;exitX=0;exitY=0.5;exitDx=0;exitDy=0;" edge="1" parent="1" source="hCgfWxHEHQQVAN8_4vTF-6" target="hCgfWxHEHQQVAN8_4vTF-8">
          <mxGeometry width="50" height="50" relative="1" as="geometry">
            <mxPoint x="458" y="133" as="sourcePoint" />
            <mxPoint x="456" y="101" as="targetPoint" />
          </mxGeometry>
        </mxCell>
        <mxCell id="hCgfWxHEHQQVAN8_4vTF-15" value="PC" style="ellipse;whiteSpace=wrap;html=1;" vertex="1" parent="1">
          <mxGeometry x="133" y="23" width="78" height="62" as="geometry" />
        </mxCell>
        <mxCell id="hCgfWxHEHQQVAN8_4vTF-16" value="Target RTOS" style="ellipse;whiteSpace=wrap;html=1;" vertex="1" parent="1">
          <mxGeometry x="139" y="98" width="89" height="60" as="geometry" />
        </mxCell>
        <mxCell id="hCgfWxHEHQQVAN8_4vTF-17" value="&lt;div&gt;C,inline assembler,&lt;/div&gt;&lt;div&gt;assembler according to Instrruction set&lt;/div&gt;" style="ellipse;whiteSpace=wrap;html=1;" vertex="1" parent="1">
          <mxGeometry x="154" y="189" width="120" height="99" as="geometry" />
        </mxCell>
        <mxCell id="hCgfWxHEHQQVAN8_4vTF-18" value="Upload to target micro-controller module" style="ellipse;whiteSpace=wrap;html=1;" vertex="1" parent="1">
          <mxGeometry x="27" y="195" width="92" height="87" as="geometry" />
        </mxCell>
        <mxCell id="hCgfWxHEHQQVAN8_4vTF-19" value="" style="endArrow=classic;startArrow=classic;html=1;rounded=0;entryX=0;entryY=1;entryDx=0;entryDy=0;exitX=1;exitY=0;exitDx=0;exitDy=0;" edge="1" parent="1" source="hCgfWxHEHQQVAN8_4vTF-22" target="hCgfWxHEHQQVAN8_4vTF-15">
          <mxGeometry width="50" height="50" relative="1" as="geometry">
            <mxPoint x="147" y="280" as="sourcePoint" />
            <mxPoint x="197" y="230" as="targetPoint" />
          </mxGeometry>
        </mxCell>
        <mxCell id="hCgfWxHEHQQVAN8_4vTF-20" value="" style="endArrow=classic;html=1;rounded=0;exitX=1;exitY=1;exitDx=0;exitDy=0;" edge="1" parent="1" source="hCgfWxHEHQQVAN8_4vTF-16" target="hCgfWxHEHQQVAN8_4vTF-17">
          <mxGeometry width="50" height="50" relative="1" as="geometry">
            <mxPoint x="147" y="280" as="sourcePoint" />
            <mxPoint x="197" y="230" as="targetPoint" />
          </mxGeometry>
        </mxCell>
        <mxCell id="hCgfWxHEHQQVAN8_4vTF-21" value="" style="endArrow=classic;startArrow=classic;html=1;rounded=0;entryX=1;entryY=0.5;entryDx=0;entryDy=0;exitX=0;exitY=0.5;exitDx=0;exitDy=0;" edge="1" parent="1" source="hCgfWxHEHQQVAN8_4vTF-17" target="hCgfWxHEHQQVAN8_4vTF-18">
          <mxGeometry width="50" height="50" relative="1" as="geometry">
            <mxPoint x="184" y="127" as="sourcePoint" />
            <mxPoint x="182" y="95" as="targetPoint" />
          </mxGeometry>
        </mxCell>
        <mxCell id="hCgfWxHEHQQVAN8_4vTF-22" value="Installed toolchain" style="ellipse;whiteSpace=wrap;html=1;" vertex="1" parent="1">
          <mxGeometry x="34" y="96" width="78" height="62" as="geometry" />
        </mxCell>
        <mxCell id="hCgfWxHEHQQVAN8_4vTF-23" value="" style="endArrow=classic;html=1;rounded=0;exitX=1;exitY=0.5;exitDx=0;exitDy=0;entryX=0;entryY=0.5;entryDx=0;entryDy=0;" edge="1" parent="1" source="hCgfWxHEHQQVAN8_4vTF-22" target="hCgfWxHEHQQVAN8_4vTF-16">
          <mxGeometry width="50" height="50" relative="1" as="geometry">
            <mxPoint x="215" y="178" as="sourcePoint" />
            <mxPoint x="236" y="209" as="targetPoint" />
          </mxGeometry>
        </mxCell>
      </root>
    </mxGraphModel>
  </diagram>
</mxfile>
